<?xml version="1.0" encoding="utf-8"?>
<!-- Generator: Adobe Illustrator 27.2.0, SVG Export Plug-In . SVG Version: 6.00 Build 0)  -->
<svg version="1.1" id="Ebene_1" xmlns="http://www.w3.org/2000/svg" xmlns:xlink="http://www.w3.org/1999/xlink" x="0px" y="0px"
	 viewBox="0 0 1366 768" style="enable-background:new 0 0 1366 768;" xml:space="preserve">
<style type="text/css">
	.st0{fill:#9D3EC1;}
	.st1{fill:url(#SVGID_1_);}
	.st2{fill:url(#SVGID_00000074419792905802475850000005582795091615104669_);}
	.st3{fill:#BE126C;}
</style>
<g>
	<rect x="797.58" y="562.92" class="st0" width="19.75" height="10.82"/>
	<path class="st0" d="M387.11,624.39c0-11.31-2.35-19.75-7.05-25.32c-4.7-5.58-11.14-8.37-19.33-8.37c-5.53,0-10.34,1.28-14.43,3.85
		c-4.1,2.56-7.4,6.08-9.91,10.55c-1.96-4.82-4.84-8.43-8.63-10.82c-3.79-2.39-8.35-3.58-13.68-3.58c-5.28,0-9.91,1.07-13.91,3.2
		c-3.99,2.14-7.32,5.14-9.99,9.01l-0.9-10.7h-29.39v11.68l11.98,2.26v53.74l-11.38,2.26v11.61h40.93v-11.61l-10.63-2.26v-45.52
		c1.51-2.76,3.53-4.9,6.07-6.41c2.54-1.51,5.66-2.26,9.38-2.26c4.47,0,7.89,1.44,10.25,4.33c2.36,2.89,3.54,7.65,3.54,14.28v35.57
		l-10.33,2.26v11.61h39.57v-11.61l-10.33-2.26v-40.02c0.8-4.12,2.55-7.51,5.24-10.18c2.69-2.66,6.12-3.99,10.29-3.99
		c4.47,0,7.86,1.38,10.17,4.14c2.31,2.76,3.47,7.59,3.47,14.47v35.57l-10.7,2.26v11.61h41.08v-11.61l-11.38-2.26V624.39z"/>
	<path class="st0" d="M475.79,658c-0.03-1.05-0.04-2.13-0.04-3.24v-35.95c0-9.04-2.98-15.99-8.93-20.84
		c-5.95-4.85-14.11-7.27-24.46-7.27c-6.03,0-11.51,0.77-16.43,2.3c-4.93,1.53-9.4,3.61-13.42,6.22l0.15,20.13h13.94l1.73-11
		c1.71-1.26,3.64-2.22,5.8-2.9c2.16-0.68,4.65-1.02,7.46-1.02c4.92,0,8.68,1.28,11.27,3.84c2.59,2.57,3.88,6.01,3.88,10.33v6.86
		h-12.44c-7.74,0-14.32,1.09-19.75,3.28c-5.43,2.18-9.55,5.21-12.36,9.08c-2.82,3.87-4.22,8.37-4.22,13.49
		c0,7.49,2.31,13.37,6.93,17.64c4.62,4.27,11.08,6.41,19.37,6.41c4.82,0,9.16-1.09,13-3.28c3.84-2.18,7.12-4.99,9.84-8.4
		c0.2,1.66,0.51,3.32,0.94,4.97s0.89,3.37,1.39,5.13h24.8v-11.61l-8.29-1.06C475.87,660.09,475.81,659.06,475.79,658z
		 M456.76,651.22c-1.66,2.71-4.15,4.96-7.46,6.75c-3.32,1.78-6.89,2.67-10.7,2.67c-3.77,0-6.66-0.85-8.67-2.56
		c-2.01-1.71-3.01-4.14-3.01-7.31c0-3.51,1.44-6.59,4.33-9.23c2.89-2.64,7.17-3.96,12.85-3.96h12.66V651.22z"/>
	<path class="st0" d="M543.36,590.7c-4.22,0-7.9,1.16-11.04,3.47c-3.14,2.31-5.79,5.63-7.95,9.95l-0.15-1.66l-0.98-10.25h-29.39
		v11.68l11.91,2.26v53.74l-11.31,2.26v11.61h41.6v-11.61l-11.31-2.26v-42.51c1.51-2.76,3.38-4.92,5.61-6.48
		c2.24-1.56,5.09-2.23,8.56-2.04l10.63,0.6l2.19-17.56c-1.01-0.3-2.3-0.58-3.88-0.83C546.26,590.83,544.76,590.7,543.36,590.7z"/>
	<polygon class="st0" points="610.07,626.52 631.62,606.3 642.09,603.89 642.09,592.21 602.75,592.21 602.75,603.81 611.27,604.94 
		611.04,605.25 585.87,629.14 585.87,556.18 554.89,556.18 554.89,567.86 566.95,570.13 566.95,659.89 555.57,662.15 555.57,673.76 
		596.49,673.76 596.49,662.15 585.87,659.89 585.87,649.22 597.46,638.34 614.58,660.95 614.81,661.25 607.65,662.53 607.65,673.76 
		646.84,673.76 646.84,662.15 635.99,660.04 	"/>
	<path class="st0" d="M705.36,595.15c-5-2.96-11.19-4.45-18.58-4.45c-6.93,0-13.11,1.77-18.54,5.31
		c-5.43,3.54-9.69,8.42-12.78,14.62c-3.09,6.21-4.63,13.28-4.63,21.22v3.17c0,7.84,1.57,14.8,4.71,20.88
		c3.14,6.08,7.56,10.84,13.27,14.28c5.7,3.44,12.4,5.16,20.09,5.16c6.63,0,12.44-0.93,17.41-2.79c4.97-1.86,9.07-4.14,12.29-6.86
		l-5.95-11.91c-3.07,2.21-6.41,3.92-10.02,5.13c-3.62,1.21-7.64,1.81-12.06,1.81c-4.22,0-7.8-0.95-10.74-2.86
		c-2.94-1.91-5.2-4.52-6.78-7.84c-1.58-3.32-2.48-7.11-2.68-11.38l0.15-0.38h50.05v-10.85c0-7.64-1.28-14.18-3.84-19.63
		C714.15,602.32,710.36,598.11,705.36,595.15z M702.39,624.92h-31.58l-0.23-0.38c0.5-3.72,1.44-7.05,2.83-9.98
		c1.38-2.94,3.23-5.26,5.54-6.97c2.31-1.71,5-2.56,8.06-2.56c3.52,0,6.42,0.75,8.7,2.26c2.29,1.51,3.97,3.61,5.05,6.29
		c1.08,2.69,1.62,5.82,1.62,9.38V624.92z"/>
	<path class="st0" d="M771.62,660.27c-1.73,0.25-3.3,0.38-4.71,0.38c-2.46,0-4.41-0.79-5.84-2.37c-1.43-1.58-2.15-4.11-2.15-7.58
		v-44.92h16.13v-13.57h-16.13v-19.82H740v19.82h-11.91v13.57H740v44.92c0,8.54,1.93,14.76,5.8,18.65c3.87,3.9,9.27,5.84,16.2,5.84
		c2.61,0,5.34-0.22,8.18-0.68s5.36-1,7.58-1.66l-1.96-13.34C774.74,659.77,773.35,660.02,771.62,660.27z"/>
	<polygon class="st0" points="817.33,592.21 786.35,592.21 786.35,603.89 798.33,606.15 798.33,659.89 787.03,662.15 787.03,673.76 
		828.56,673.76 828.56,662.15 817.33,659.89 	"/>
	<path class="st0" d="M916.89,622.58c0-10.95-2.34-19.01-7.01-24.16c-4.67-5.15-11.21-7.73-19.6-7.73c-5.13,0-9.71,1.17-13.76,3.51
		c-4.04,2.34-7.42,5.61-10.14,9.83l-0.98-11.83h-29.39v11.68l11.91,2.26v53.74l-11.31,2.26v11.61h40.62v-11.61l-10.33-2.26v-44.92
		c1.71-2.91,3.93-5.19,6.67-6.82c2.74-1.63,5.94-2.45,9.61-2.45c4.87,0,8.54,1.29,11,3.88c2.46,2.59,3.69,6.97,3.69,13.15v37.16
		l-10.63,2.26v11.61h40.93v-11.61l-11.31-2.26V622.58z"/>
	<path class="st0" d="M1008.09,592.21h-10.55h-5.8l-1.43,10.25c-2.56-3.77-5.68-6.67-9.35-8.7c-3.67-2.04-7.99-3.05-12.96-3.05
		c-6.58,0-12.25,1.81-17,5.43c-4.75,3.62-8.39,8.67-10.93,15.15c-2.54,6.48-3.81,14.07-3.81,22.76v1.58c0,7.89,1.27,14.82,3.81,20.8
		c2.54,5.98,6.21,10.63,11,13.94s10.51,4.98,17.15,4.98c4.47,0,8.44-0.84,11.91-2.53c3.47-1.68,6.46-4.13,8.97-7.35v6.41
		c0,6.28-1.45,11.14-4.33,14.59c-2.89,3.44-7.45,5.16-13.68,5.16c-3.47,0-7.14-0.45-11-1.36c-3.87-0.9-7.41-2.08-10.63-3.54
		l-3.92,13.87c3.72,1.91,8.03,3.4,12.93,4.48c4.9,1.08,9.36,1.62,13.38,1.62c7.59,0,14.09-1.42,19.52-4.26
		c5.43-2.84,9.57-6.86,12.44-12.06c2.86-5.2,4.3-11.34,4.3-18.43v-65.97l9.8-2.09v-11.68H1008.09z M989.1,651.22
		c-1.66,2.96-3.78,5.23-6.37,6.78c-2.59,1.56-5.72,2.34-9.38,2.34c-6.28,0-10.87-2.23-13.76-6.71c-2.89-4.47-4.33-10.48-4.33-18.01
		v-1.58c0-5.63,0.64-10.56,1.92-14.81s3.27-7.56,5.95-9.95c2.69-2.39,6.12-3.58,10.29-3.58c3.57,0,6.66,0.82,9.27,2.45
		c2.61,1.63,4.75,3.88,6.41,6.75V651.22z"/>
</g>
<g>
	<linearGradient id="SVGID_1_" gradientUnits="userSpaceOnUse" x1="441.9989" y1="227.0335" x2="670.94" y2="334.1355">
		<stop  offset="0" style="stop-color:#9D3EC1"/>
		<stop  offset="0.1495" style="stop-color:#993CBB"/>
		<stop  offset="0.3431" style="stop-color:#8C36AB"/>
		<stop  offset="0.5608" style="stop-color:#772D91"/>
		<stop  offset="0.7945" style="stop-color:#5A206C"/>
		<stop  offset="1" style="stop-color:#3B1245"/>
	</linearGradient>
	<path class="st1" d="M738.88,116.73c-12.59-19.7-30.5-35.06-53.73-46.14c-23.2-11.05-50.6-16.59-82.15-16.59H410.36v56.06
		l41.09,8.7v266.89l-41.09,8.7v55.79h146.36L525,536.05l63.02-108.95l3-5.19l13.87-23.98l-23.87-5.05l-34.1-7.22V316h56.06
		c19.13,0,36.72-2,52.78-6.02c0.05-0.01,95.94-165.78,95.92-165.84C748.64,134.42,744.33,125.26,738.88,116.73z M647.19,226.91
		c-10.07,10.61-24.8,15.9-44.2,15.9h-56.06V126.92h56.06c19.41,0,34.13,5.54,44.2,16.59c10.07,11.07,15.09,25.21,15.09,42.46
		C662.29,202.66,657.26,216.31,647.19,226.91z"/>
	
		<linearGradient id="SVGID_00000181069386604813911990000014498836177437171358_" gradientUnits="userSpaceOnUse" x1="704.8086" y1="279.3494" x2="872.6624" y2="336.7267">
		<stop  offset="1.704807e-03" style="stop-color:#3B1245"/>
		<stop  offset="0.2961" style="stop-color:#5F2273"/>
		<stop  offset="0.6086" style="stop-color:#81319D"/>
		<stop  offset="0.8541" style="stop-color:#953BB7"/>
		<stop  offset="1" style="stop-color:#9D3EC1"/>
	</linearGradient>
	<polygon style="fill:url(#SVGID_00000181069386604813911990000014498836177437171358_);" points="826.32,207.73 826.32,474.62 
		867.41,483.32 867.41,539.09 690.02,539.09 690.02,483.32 731.09,474.62 731.09,208.04 820.19,54 786.23,142.9 867.41,142.97 
		867.41,199.01 	"/>
	<path class="st3" d="M690.63,248.96"/>
</g>
</svg>
